<svg width="32" height="32" xmlns="http://www.w3.org/2000/svg">
  <!-- Background circle -->
  <circle cx="16" cy="16" r="15" fill="#1a3d5f" stroke="#00D9FF" stroke-width="1"/>
  
  <!-- Simplified chromatic segments -->
  <path d="M 16,16 L 16,4 A 12,12 0 0,1 26.4,10.4 Z" fill="#FFFF00" opacity="0.9"/>
  <path d="M 16,16 L 26.4,10.4 A 12,12 0 0,1 28,16 Z" fill="#FF8C00" opacity="0.9"/>
  <path d="M 16,16 L 28,16 A 12,12 0 0,1 26.4,21.6 Z" fill="#FF0000" opacity="0.9"/>
  <path d="M 16,16 L 26.4,21.6 A 12,12 0 0,1 16,28 Z" fill="#8B00FF" opacity="0.9"/>
  <path d="M 16,16 L 16,28 A 12,12 0 0,1 5.6,21.6 Z" fill="#0000FF" opacity="0.9"/>
  <path d="M 16,16 L 5.6,21.6 A 12,12 0 0,1 4,16 Z" fill="#00FFFF" opacity="0.9"/>
  <path d="M 16,16 L 4,16 A 12,12 0 0,1 5.6,10.4 Z" fill="#00FF00" opacity="0.9"/>
  <path d="M 16,16 L 5.6,10.4 A 12,12 0 0,1 16,4 Z" fill="#9ACD32" opacity="0.9"/>
  
  <!-- Center dot -->
  <circle cx="16" cy="16" r="4" fill="#1a3d5f" stroke="#F4D03F" stroke-width="1.5"/>
  <circle cx="16" cy="16" r="1.5" fill="#F4D03F"/>
</svg>
